<svg xmlns="http://www.w3.org/2000/svg" width="37.317" height="36" viewBox="0 0 37.317 36">
  <g id="shopping-cart" transform="translate(0 -2.25)">
    <path id="Path_40" data-name="Path 40" d="M13.5,31.5a2.25,2.25,0,1,1-2.25-2.25A2.25,2.25,0,0,1,13.5,31.5Z" transform="translate(1.491 4.5)"/>
    <path id="Path_41" data-name="Path 41" d="M29.25,31.5A2.25,2.25,0,1,1,27,29.25,2.25,2.25,0,0,1,29.25,31.5Z" transform="translate(4.664 4.5)"/>
    <path id="Path_42" data-name="Path 42" d="M36,8.9H7.483L6.429,3.314A1.3,1.3,0,0,0,5.143,2.25H0V4.909H4.089L9,30.436A1.3,1.3,0,0,0,10.286,31.5H33.428V28.841H11.339l-1.054-5.318H33.428a1.3,1.3,0,0,0,1.286-1.038l2.571-11.966a1.364,1.364,0,0,0-.26-1.135A1.269,1.269,0,0,0,36,8.9ZM32.4,20.863H9.8L8,11.557h26.4Z"/>
  </g>
</svg>
